<?xml version="1.0" standalone="no"?>
<!DOCTYPE svg PUBLIC "-//W3C//DTD SVG 20010904//EN"
 "http://www.w3.org/TR/2001/REC-SVG-20010904/DTD/svg10.dtd">
<svg version="1.0" xmlns="http://www.w3.org/2000/svg"
 width="500.000000pt" height="500.000000pt" viewBox="0 0 500.000000 500.000000"
 preserveAspectRatio="xMidYMid meet">
<metadata>
Created by potrace 1.14, written by Peter Selinger 2001-2017
</metadata>
<g transform="translate(0.000000,500.000000) scale(0.100000,-0.100000)"
fill="#000000" stroke="none">
<path d="M2501 4778 l-71 -40 0 -194 c0 -107 3 -194 6 -194 3 0 34 16 69 36
60 33 65 34 92 21 24 -13 356 -204 1435 -828 l268 -154 0 -996 0 -996 -377
-218 c-641 -371 -1277 -737 -1290 -742 -10 -4 -13 295 -15 1462 l-3 1468 -158
68 c-87 38 -162 69 -167 69 -6 0 -11 -551 -12 -1468 l-3 -1469 -717 415 -718
415 0 996 0 996 400 230 400 230 0 198 0 197 -48 -27 c-27 -16 -283 -163 -570
-328 l-521 -300 -1 -1196 0 -1197 328 -188 c180 -103 646 -372 1035 -596 l708
-408 742 428 c408 236 874 504 1035 596 l292 168 0 1197 -1 1196 -1034 596
-1033 596 -71 -39z"/>
<path d="M1370 1981 l0 -609 166 -96 c91 -53 170 -96 175 -96 5 0 9 251 9 634
l0 633 -164 72 c-90 39 -169 71 -175 71 -8 0 -11 -171 -11 -609z"/>
</g>
</svg>
